<svg width="140" height="115" viewBox="0 0 140 115" fill="none" xmlns="http://www.w3.org/2000/svg">
<circle cx="82.5" cy="57.5" r="57.5" fill="#0081FF"/>
<path d="M91.4619 50.5239C91.4619 42.3206 84.8783 35.6705 76.7571 35.6705C68.6358 35.6705 62.0522 42.3206 62.0522 50.5239V62.1944C62.0522 70.3977 68.6358 77.0478 76.7571 77.0478C84.8783 77.0478 91.4619 70.3977 91.4619 62.1944V50.5239Z" fill="white" stroke="black" stroke-miterlimit="10"/>
<path d="M112.469 88.7219C110.544 85.3693 104.532 74.8658 101.616 69.2675C98.1145 62.5481 99.2769 57.597 99.2769 50.2587C99.2769 42.9204 94.9635 24 76.7575 24C56.4508 24 54 42.0363 54 48.1368C54 59.0116 57.151 64.3164 59.6018 71.7431C61.7866 78.3599 60.9113 87.7848 60.6942 89.7617C60.6697 89.9739 60.8377 90.1542 61.0478 90.1507C62.2697 90.133 66.044 89.5424 68.4107 83.2722C69.5031 80.3757 70.0073 77.6986 70.2138 75.4953C65.3752 73.0622 62.0491 68.0227 62.0491 62.1945V53.0561C71.1171 51.4045 78.3505 43.175 80.3812 40.65C80.6718 40.2892 81.2214 40.3034 81.491 40.6818C82.986 42.7789 87.352 48.5895 91.4588 50.9306V62.1909C91.4588 68.0934 88.0487 73.1931 83.1121 75.5873C83.5112 78.7949 84.2955 82.5472 85.857 84.8247C88.2973 88.386 90.7376 89.4009 91.7144 89.6768C91.9385 89.7405 92.159 89.5707 92.159 89.3373V82.5648C92.159 82.1864 92.6702 82.0733 92.8278 82.4198L95.9788 89.4009C96.0978 89.6344 96.3394 89.7829 96.5985 89.7829H111.86C112.399 89.7829 112.735 89.1958 112.466 88.7255L112.469 88.7219Z" fill="black" stroke="black" stroke-miterlimit="10"/>
<path d="M65.5542 56.3592C65.5542 56.3592 66.8776 55.2982 68.5302 55.2982C70.1827 55.2982 71.5062 56.3592 71.5062 56.3592" stroke="black" stroke-linecap="round" stroke-linejoin="round"/>
<path d="M82.0083 56.3592C82.0083 56.3592 83.3317 55.2982 84.9843 55.2982C86.6368 55.2982 87.9603 56.3592 87.9603 56.3592" stroke="black" stroke-linecap="round" stroke-linejoin="round"/>
<path d="M80.1715 68.2065C80.1715 68.2065 78.6555 69.2674 76.7579 69.2674C74.8602 69.2674 73.3442 68.2065 73.3442 68.2065" stroke="black" stroke-linecap="round" stroke-linejoin="round"/>
<path d="M68.355 50.8775H72.0312C73.6452 50.8775 74.9231 52.2497 74.8286 53.8765L74.3069 62.5481H78.1582" stroke="black" stroke-linecap="round" stroke-linejoin="round"/>
<path d="M86.5604 50.8775H82.0089C80.4614 50.8775 79.208 52.1436 79.208 53.7068V54.4141" stroke="black" stroke-linecap="round" stroke-linejoin="round"/>
<rect x="0.5" y="11.5" width="49.3111" height="93.1003" rx="3.5" fill="white" stroke="black"/>
<path d="M38.0545 66.116C37.4356 64.8007 36.7914 63.4956 36.0886 62.2207C34.9955 60.2337 33.7807 58.3053 32.7421 56.2939C31.8777 54.6184 31.6805 52.8276 32.0435 50.9438C32.6037 48.04 32.0372 45.3144 30.1573 42.9347C27.8536 40.0168 24.7778 38.5498 20.9761 39.0456C15.2483 39.7902 11.2808 44.9825 12.2606 50.4844C12.6865 52.8701 13.5299 55.1891 14.2244 57.5282C15.0846 60.4219 15.7833 63.3175 14.8937 66.3305C14.7741 66.7392 14.9734 66.9213 15.3993 66.889C16.1148 66.8343 16.7023 66.5146 17.21 66.0472C18.2611 65.08 18.7248 63.8315 18.9997 62.502C19.0941 62.0427 19.1444 61.5752 19.2221 61.0613C21.2614 61.9253 23.2525 61.9031 25.2226 61.0694C25.3988 61.895 25.4995 62.7003 25.7471 63.4632C26.1856 64.8149 26.8339 66.0553 28.2816 66.6846C29.209 67.0873 29.4733 66.9072 29.3453 65.9541C29.2551 65.2762 29.1649 64.0844 29.1208 63.4672C29.1145 63.3863 29.2299 63.358 29.2656 63.4328C29.5824 64.0986 30.258 65.5292 30.6126 66.3608C30.7741 66.7413 30.9525 66.9052 31.391 66.9011C33.424 66.8849 35.4571 66.8991 37.488 66.8971C38.2035 66.8971 38.3503 66.7433 38.0566 66.118L38.0545 66.116ZM28.4432 56.0754C28.0109 58.971 25.2457 61.0188 22.2097 61.0127C19.1612 61.0066 16.4337 58.9022 15.9616 56.0025C15.7392 54.6407 15.7959 53.2364 15.756 51.822C15.7497 51.6297 15.8819 51.4598 16.077 51.4173C16.8239 51.2513 17.6674 51.0207 18.4835 50.7131H20.3508C20.5355 50.7131 20.7096 50.7839 20.8376 50.9134C20.9656 51.0429 21.0327 51.2109 21.0243 51.391L20.8607 55.1931C20.8565 55.2923 20.8942 55.3874 20.9656 55.4582C21.0369 55.529 21.1334 55.5695 21.2362 55.5695H22.9147C23.1224 55.5695 23.2903 55.4076 23.2903 55.2073C23.2903 55.007 23.1224 54.8451 22.9147 54.8451H21.6265L21.7754 51.4193C21.7922 51.0409 21.6516 50.6848 21.381 50.4116C21.1103 50.1384 20.7453 49.9887 20.3529 49.9887H20.0424C21.4922 49.0639 23.3217 46.8057 23.8882 46.0813C23.9742 45.97 24.1463 45.974 24.2281 46.0894C24.6204 46.6479 25.6359 48.0461 26.3577 48.6795C27.113 49.3411 27.7214 49.6467 28.2187 49.9361C28.4641 50.0797 28.6131 50.3327 28.6194 50.6099C28.6425 51.7066 28.676 54.5355 28.4453 56.0774L28.4432 56.0754ZM23.521 57.2976C23.521 57.2976 22.9734 57.6355 22.1783 57.6355C21.3831 57.6355 20.8418 57.3016 20.8376 57.2996C20.6446 57.1762 20.3844 57.2267 20.2564 57.4109C20.1284 57.595 20.1809 57.848 20.3718 57.9714C20.4012 57.9916 21.1187 58.4449 22.1783 58.4449C23.2378 58.4449 23.9553 57.9916 23.9847 57.9714C24.1777 57.848 24.2281 57.5991 24.1022 57.4129C23.9763 57.2267 23.7162 57.1762 23.521 57.2976ZM18.2968 51.8098C17.4156 51.8098 16.8218 52.2793 16.7967 52.2995C16.6372 52.427 16.6162 52.6556 16.7484 52.8094C16.8806 52.9632 17.1177 52.9835 17.2771 52.856C17.2813 52.8519 17.6926 52.5363 18.2947 52.5363C18.8969 52.5363 19.3102 52.856 19.3123 52.856C19.3815 52.9126 19.4675 52.941 19.5515 52.941C19.6585 52.941 19.7655 52.8964 19.841 52.8115C19.9732 52.6577 19.9522 52.429 19.7927 52.3015C19.7676 52.2813 19.1738 51.8118 18.2926 51.8118L18.2968 51.8098ZM26.0597 51.8098C25.1785 51.8098 24.5848 52.2793 24.5596 52.2995C24.4001 52.427 24.3792 52.6556 24.5113 52.8094C24.6435 52.9632 24.8806 52.9835 25.0401 52.856C25.0443 52.8519 25.4555 52.5363 26.0576 52.5363C26.6598 52.5363 27.0731 52.856 27.0752 52.856C27.1444 52.9126 27.2305 52.941 27.3144 52.941C27.4214 52.941 27.5284 52.8964 27.6039 52.8115C27.7361 52.6577 27.7151 52.429 27.5557 52.3015C27.5305 52.2813 26.9367 51.8118 26.0555 51.8118L26.0597 51.8098ZM27.0647 50.3509C27.0647 50.1505 26.8969 49.9887 26.6892 49.9887H24.3813C23.5966 49.9887 22.9567 50.6058 22.9567 51.3626V51.7673C22.9567 51.9677 23.1245 52.1295 23.3322 52.1295C23.5399 52.1295 23.7078 51.9677 23.7078 51.7673V51.3626C23.7078 51.0045 24.0099 50.7131 24.3813 50.7131H26.6892C26.8969 50.7131 27.0647 50.5512 27.0647 50.3509Z" fill="black"/>
<rect x="16.77" y="14.4218" width="15.3982" height="4.27729" rx="2.13864" fill="black"/>
<circle cx="24.6987" cy="93.4288" r="4.63274" stroke="black"/>
<circle cx="24.6979" cy="93.4288" r="3.26629" fill="black"/>
<rect x="8.88525" y="31.9971" width="32.5407" height="44.6526" rx="16.2704" stroke="black"/>
</svg>
