<svg width="140" height="115" viewBox="0 0 140 115" fill="none" xmlns="http://www.w3.org/2000/svg">
<circle cx="82.5" cy="57.5" r="57.5" fill="#0081FF"/>
<path d="M91.4619 50.5239C91.4619 42.3206 84.8783 35.6705 76.7571 35.6705C68.6358 35.6705 62.0522 42.3206 62.0522 50.5239V62.1944C62.0522 70.3977 68.6358 77.0478 76.7571 77.0478C84.8783 77.0478 91.4619 70.3977 91.4619 62.1944V50.5239Z" fill="white" stroke="black" stroke-miterlimit="10"/>
<path d="M112.469 88.7219C110.544 85.3693 104.532 74.8658 101.616 69.2675C98.1145 62.5481 99.2769 57.597 99.2769 50.2587C99.2769 42.9204 94.9635 24 76.7575 24C56.4508 24 54 42.0363 54 48.1368C54 59.0116 57.151 64.3164 59.6018 71.7431C61.7866 78.3599 60.9113 87.7848 60.6942 89.7617C60.6697 89.9739 60.8377 90.1542 61.0478 90.1507C62.2697 90.133 66.044 89.5424 68.4107 83.2722C69.5031 80.3757 70.0073 77.6986 70.2138 75.4953C65.3752 73.0622 62.0491 68.0227 62.0491 62.1945V53.0561C71.1171 51.4045 78.3505 43.175 80.3812 40.65C80.6718 40.2892 81.2214 40.3034 81.491 40.6818C82.986 42.7789 87.352 48.5895 91.4588 50.9306V62.1909C91.4588 68.0934 88.0487 73.1931 83.1121 75.5873C83.5112 78.7949 84.2955 82.5472 85.857 84.8247C88.2973 88.386 90.7376 89.4009 91.7144 89.6768C91.9385 89.7405 92.159 89.5707 92.159 89.3373V82.5648C92.159 82.1864 92.6702 82.0733 92.8278 82.4198L95.9788 89.4009C96.0978 89.6344 96.3394 89.7829 96.5985 89.7829H111.86C112.399 89.7829 112.735 89.1958 112.466 88.7255L112.469 88.7219Z" fill="black" stroke="black" stroke-miterlimit="10"/>
<path d="M65.5542 56.3592C65.5542 56.3592 66.8776 55.2982 68.5302 55.2982C70.1827 55.2982 71.5062 56.3592 71.5062 56.3592" stroke="black" stroke-linecap="round" stroke-linejoin="round"/>
<path d="M82.0083 56.3592C82.0083 56.3592 83.3317 55.2982 84.9843 55.2982C86.6368 55.2982 87.9603 56.3592 87.9603 56.3592" stroke="black" stroke-linecap="round" stroke-linejoin="round"/>
<path d="M80.1715 68.2065C80.1715 68.2065 78.6555 69.2674 76.7579 69.2674C74.8602 69.2674 73.3442 68.2065 73.3442 68.2065" stroke="black" stroke-linecap="round" stroke-linejoin="round"/>
<path d="M68.355 50.8775H72.0312C73.6452 50.8775 74.9231 52.2497 74.8286 53.8765L74.3069 62.5481H78.1582" stroke="black" stroke-linecap="round" stroke-linejoin="round"/>
<path d="M86.5604 50.8775H82.0089C80.4614 50.8775 79.208 52.1436 79.208 53.7068V54.4141" stroke="black" stroke-linecap="round" stroke-linejoin="round"/>
<circle cx="32.9998" cy="37" r="18.3333" fill="white" stroke="black"/>
<line x1="32.9761" y1="4" x2="32.9761" y2="14.4762" stroke="black"/>
<line x1="32.9761" y1="59.5238" x2="32.9761" y2="70" stroke="black"/>
<line x1="10.4761" y1="36.9762" x2="-0.000116392" y2="36.9762" stroke="black"/>
<line x1="15.3608" y1="20.0678" x2="8.02744" y2="12.7345" stroke="black"/>
<line x1="56.9799" y1="61.6869" x2="49.6466" y2="54.3536" stroke="black"/>
<line x1="16.0679" y1="53.5916" x2="8.73458" y2="60.9249" stroke="black"/>
<line x1="55.8775" y1="12.7345" x2="48.5441" y2="20.0678" stroke="black"/>
</svg>
