<svg width="122" height="153" viewBox="0 0 122 153" fill="none" xmlns="http://www.w3.org/2000/svg">
<path d="M4.59215 152.762C3.55105 152.762 2.72383 152.473 2.11047 151.895C1.49711 151.31 1.19043 150.467 1.19043 149.368V147.394C1.19043 146.295 1.49711 145.456 2.11047 144.879C2.72383 144.293 3.55105 144 4.59215 144C5.63325 144 6.46047 144.293 7.07383 144.879C7.69526 145.456 8.00598 146.295 8.00598 147.394V149.368C8.00598 150.467 7.69526 151.31 7.07383 151.895C6.46047 152.473 5.63325 152.762 4.59215 152.762ZM4.59215 151.594C5.262 151.594 5.77851 151.402 6.14169 151.017C6.50486 150.624 6.68645 150.09 6.68645 149.416V147.346C6.68645 146.672 6.50486 146.142 6.14169 145.757C5.77851 145.364 5.262 145.167 4.59215 145.167C3.93844 145.167 3.42596 145.364 3.05472 145.757C2.68347 146.142 2.49785 146.672 2.49785 147.346V149.416C2.49785 150.09 2.68347 150.624 3.05472 151.017C3.42596 151.402 3.93844 151.594 4.59215 151.594Z" fill="#0081FF"/>
<path d="M10.6047 152.593L9.35779 144.168H10.6652L11.6821 151.715H11.8758L13.1832 144.168H15.4712L16.7786 151.715H16.9723L17.9771 144.168H19.2845L18.0376 152.593H15.7496L14.418 144.939H14.2243L12.9048 152.593H10.6047Z" fill="#0081FF"/>
<path d="M20.9475 152.593V144.168H23.4655L25.7656 151.727H25.9593V144.168H27.2546V152.593H24.7366L22.4365 145.023H22.2428V152.593H20.9475Z" fill="#0081FF"/>
<path d="M34.9107 152.593V149.536L31.969 144.168H33.4459L35.4797 147.984H35.6613L37.6951 144.168H39.172L36.2303 149.536V152.593H34.9107Z" fill="#0081FF"/>
<path d="M43.4032 152.762C42.3621 152.762 41.5348 152.473 40.9215 151.895C40.3081 151.31 40.0014 150.467 40.0014 149.368V147.394C40.0014 146.295 40.3081 145.456 40.9215 144.879C41.5348 144.293 42.3621 144 43.4032 144C44.4442 144 45.2715 144.293 45.8848 144.879C46.5063 145.456 46.817 146.295 46.817 147.394V149.368C46.817 150.467 46.5063 151.31 45.8848 151.895C45.2715 152.473 44.4442 152.762 43.4032 152.762ZM43.4032 151.594C44.073 151.594 44.5895 151.402 44.9527 151.017C45.3159 150.624 45.4975 150.09 45.4975 149.416V147.346C45.4975 146.672 45.3159 146.142 44.9527 145.757C44.5895 145.364 44.073 145.167 43.4032 145.167C42.7494 145.167 42.237 145.364 41.8657 145.757C41.4945 146.142 41.3089 146.672 41.3089 147.346V149.416C41.3089 150.09 41.4945 150.624 41.8657 151.017C42.237 151.402 42.7494 151.594 43.4032 151.594Z" fill="#0081FF"/>
<path d="M51.9075 152.762C51.2376 152.762 50.6606 152.641 50.1764 152.401C49.7002 152.16 49.329 151.815 49.0626 151.366C48.8044 150.908 48.6753 150.355 48.6753 149.705V144.168H49.9948V149.741C49.9948 150.335 50.1602 150.792 50.4911 151.113C50.822 151.434 51.2941 151.594 51.9075 151.594C52.5209 151.594 52.993 151.434 53.3239 151.113C53.6548 150.792 53.8202 150.335 53.8202 149.741V144.168H55.1276V149.705C55.1276 150.355 54.9985 150.908 54.7402 151.366C54.482 151.815 54.1107 152.16 53.6265 152.401C53.1423 152.641 52.5693 152.762 51.9075 152.762Z" fill="#0081FF"/>
<path d="M57.2049 152.593V144.168H60.764C61.2886 144.168 61.7486 144.261 62.1441 144.445C62.5476 144.622 62.8583 144.879 63.0762 145.216C63.3022 145.553 63.4152 145.954 63.4152 146.419V146.551C63.4152 147.081 63.2861 147.506 63.0278 147.827C62.7776 148.14 62.471 148.361 62.1078 148.489V148.682C62.4145 148.698 62.6606 148.802 62.8462 148.995C63.0318 149.179 63.1247 149.448 63.1247 149.801V152.593H61.8051V149.982C61.8051 149.765 61.7486 149.592 61.6357 149.464C61.5227 149.336 61.3411 149.272 61.0909 149.272H58.5124V152.593H57.2049ZM58.5124 148.092H60.6188C61.0869 148.092 61.45 147.976 61.7083 147.743C61.9665 147.502 62.0957 147.177 62.0957 146.768V146.672C62.0957 146.263 61.9665 145.942 61.7083 145.709C61.4581 145.468 61.0949 145.348 60.6188 145.348H58.5124V148.092Z" fill="#0081FF"/>
<path d="M68.6815 152.593V144.168H69.9889V152.593H68.6815Z" fill="#0081FF"/>
<path d="M71.8115 152.593V151.438H72.9495V145.324H71.8115V144.168H75.2011C76.331 144.168 77.1945 144.453 77.7918 145.023C78.3971 145.593 78.6997 146.451 78.6997 147.599V149.175C78.6997 150.323 78.3971 151.181 77.7918 151.751C77.1945 152.312 76.331 152.593 75.2011 152.593H71.8115ZM74.269 151.414H75.2132C75.9477 151.414 76.4924 151.229 76.8475 150.86C77.2026 150.491 77.3802 149.941 77.3802 149.211V147.55C77.3802 146.812 77.2026 146.263 76.8475 145.902C76.4924 145.54 75.9477 145.36 75.2132 145.36H74.269V151.414Z" fill="#0081FF"/>
<path d="M80.5481 152.593V144.168H85.8868V145.348H81.8556V147.767H85.5478V148.947H81.8556V151.414H85.9473V152.593H80.5481Z" fill="#0081FF"/>
<path d="M87.6814 152.593V144.168H90.1994L92.4995 151.727H92.6932V144.168H93.9885V152.593H91.4705L89.1704 145.023H88.9767V152.593H87.6814Z" fill="#0081FF"/>
<path d="M98.1486 152.593V145.348H95.5459V144.168H102.059V145.348H99.456V152.593H98.1486Z" fill="#0081FF"/>
<path d="M103.615 152.593V144.168H104.922V152.593H103.615Z" fill="#0081FF"/>
<path d="M109.081 152.593V145.348H106.479V144.168H112.991V145.348H110.389V152.593H109.081Z" fill="#0081FF"/>
<path d="M116.739 152.593V149.536L113.797 144.168H115.274L117.308 147.984H117.489L119.523 144.168H121L118.058 149.536V152.593H116.739Z" fill="#0081FF"/>
<g opacity="0.2">
<path fill-rule="evenodd" clip-rule="evenodd" d="M9.1327 38.1002C9.1327 40.0136 7.58518 41.5641 5.67698 41.5641C3.76807 41.5641 2.22125 40.0136 2.22125 38.1002C2.22125 36.1868 3.76807 34.6363 5.67698 34.6363C7.58518 34.6363 9.1327 36.1868 9.1327 38.1002Z" fill="#0081FF"/>
<path fill-rule="evenodd" clip-rule="evenodd" d="M9.1327 53.8248C9.1327 55.7383 7.58518 57.2887 5.67698 57.2887C3.76807 57.2887 2.22125 55.7383 2.22125 53.8248C2.22125 51.9114 3.76807 50.3609 5.67698 50.3609C7.58518 50.3609 9.1327 51.9114 9.1327 53.8248Z" fill="#0081FF"/>
<path fill-rule="evenodd" clip-rule="evenodd" d="M9.1327 69.5494C9.1327 71.4629 7.58518 73.0133 5.67698 73.0133C3.76807 73.0133 2.22125 71.4629 2.22125 69.5494C2.22125 67.636 3.76807 66.0855 5.67698 66.0855C7.58518 66.0855 9.1327 67.636 9.1327 69.5494Z" fill="#0081FF"/>
<path fill-rule="evenodd" clip-rule="evenodd" d="M112.674 38.1002C112.674 40.0136 114.221 41.5641 116.13 41.5641C118.038 41.5641 119.586 40.0136 119.586 38.1002C119.586 36.1868 118.038 34.6363 116.13 34.6363C114.221 34.6363 112.674 36.1868 112.674 38.1002Z" fill="#0081FF"/>
<path fill-rule="evenodd" clip-rule="evenodd" d="M112.674 53.8248C112.674 55.7383 114.221 57.2887 116.13 57.2887C118.038 57.2887 119.586 55.7383 119.586 53.8248C119.586 51.9114 118.038 50.3609 116.13 50.3609C114.221 50.3609 112.674 51.9114 112.674 53.8248Z" fill="#0081FF"/>
<path fill-rule="evenodd" clip-rule="evenodd" d="M112.674 69.5494C112.674 71.4629 114.221 73.0133 116.13 73.0133C118.038 73.0133 119.586 71.4629 119.586 69.5494C119.586 67.636 118.038 66.0855 116.13 66.0855C114.221 66.0855 112.674 67.636 112.674 69.5494Z" fill="#0081FF"/>
</g>
<g opacity="0.300105">
<path fill-rule="evenodd" clip-rule="evenodd" d="M10.3538 6.6511C10.3538 9.24033 8.25965 11.3394 5.67653 11.3394C3.09341 11.3394 1 9.24033 1 6.6511C1 4.06186 3.09341 1.9628 5.67653 1.9628C8.25965 1.9628 10.3538 4.06186 10.3538 6.6511Z" fill="#0081FF"/>
<path fill-rule="evenodd" clip-rule="evenodd" d="M10.3538 22.3756C10.3538 24.9649 8.25965 27.0639 5.67653 27.0639C3.09341 27.0639 1 24.9649 1 22.3756C1 19.7864 3.09341 17.6873 5.67653 17.6873C8.25965 17.6873 10.3538 19.7864 10.3538 22.3756Z" fill="#0081FF"/>
<path fill-rule="evenodd" clip-rule="evenodd" d="M26.8959 38.1002C26.8959 41.1358 24.4411 43.5964 21.4127 43.5964C18.3842 43.5964 15.9294 41.1358 15.9294 38.1002C15.9294 35.0646 18.3842 32.604 21.4127 32.604C24.4411 32.604 26.8959 35.0646 26.8959 38.1002Z" fill="#0081FF"/>
<path fill-rule="evenodd" clip-rule="evenodd" d="M26.8959 53.8248C26.8959 56.8604 24.4411 59.321 21.4127 59.321C18.3842 59.321 15.9294 56.8604 15.9294 53.8248C15.9294 50.7892 18.3842 48.3286 21.4127 48.3286C24.4411 48.3286 26.8959 50.7892 26.8959 53.8248Z" fill="#0081FF"/>
<path fill-rule="evenodd" clip-rule="evenodd" d="M26.8959 69.5494C26.8959 72.5851 24.4411 75.0457 21.4127 75.0457C18.3842 75.0457 15.9294 72.5851 15.9294 69.5494C15.9294 66.5138 18.3842 64.0532 21.4127 64.0532C24.4411 64.0532 26.8959 66.5138 26.8959 69.5494Z" fill="#0081FF"/>
<path fill-rule="evenodd" clip-rule="evenodd" d="M10.3538 85.274C10.3538 87.8632 8.25965 89.9623 5.67653 89.9623C3.09341 89.9623 1 87.8632 1 85.274C1 82.6848 3.09341 80.5857 5.67653 80.5857C8.25965 80.5857 10.3538 82.6848 10.3538 85.274Z" fill="#0081FF"/>
<path fill-rule="evenodd" clip-rule="evenodd" d="M10.3538 100.999C10.3538 103.588 8.25965 105.687 5.67653 105.687C3.09341 105.687 1 103.588 1 100.999C1 98.4093 3.09341 96.3103 5.67653 96.3103C8.25965 96.3103 10.3538 98.4093 10.3538 100.999Z" fill="#0081FF"/>
<path fill-rule="evenodd" clip-rule="evenodd" d="M111.453 6.6511C111.453 9.24033 113.547 11.3394 116.13 11.3394C118.713 11.3394 120.806 9.24033 120.806 6.6511C120.806 4.06186 118.713 1.9628 116.13 1.9628C113.547 1.9628 111.453 4.06186 111.453 6.6511Z" fill="#0081FF"/>
<path fill-rule="evenodd" clip-rule="evenodd" d="M111.453 22.3756C111.453 24.9649 113.547 27.0639 116.13 27.0639C118.713 27.0639 120.806 24.9649 120.806 22.3756C120.806 19.7864 118.713 17.6873 116.13 17.6873C113.547 17.6873 111.453 19.7864 111.453 22.3756Z" fill="#0081FF"/>
<path fill-rule="evenodd" clip-rule="evenodd" d="M94.9105 38.1002C94.9105 41.1358 97.3653 43.5964 100.394 43.5964C103.422 43.5964 105.877 41.1358 105.877 38.1002C105.877 35.0646 103.422 32.604 100.394 32.604C97.3653 32.604 94.9105 35.0646 94.9105 38.1002Z" fill="#0081FF"/>
<path fill-rule="evenodd" clip-rule="evenodd" d="M94.9105 53.8248C94.9105 56.8604 97.3653 59.321 100.394 59.321C103.422 59.321 105.877 56.8604 105.877 53.8248C105.877 50.7892 103.422 48.3286 100.394 48.3286C97.3653 48.3286 94.9105 50.7892 94.9105 53.8248Z" fill="#0081FF"/>
<path fill-rule="evenodd" clip-rule="evenodd" d="M94.9105 69.5494C94.9105 72.5851 97.3653 75.0457 100.394 75.0457C103.422 75.0457 105.877 72.5851 105.877 69.5494C105.877 66.5138 103.422 64.0532 100.394 64.0532C97.3653 64.0532 94.9105 66.5138 94.9105 69.5494Z" fill="#0081FF"/>
<path fill-rule="evenodd" clip-rule="evenodd" d="M111.453 85.274C111.453 87.8632 113.547 89.9623 116.13 89.9623C118.713 89.9623 120.806 87.8632 120.806 85.274C120.806 82.6848 118.713 80.5857 116.13 80.5857C113.547 80.5857 111.453 82.6848 111.453 85.274Z" fill="#0081FF"/>
<path fill-rule="evenodd" clip-rule="evenodd" d="M111.453 100.999C111.453 103.588 113.547 105.687 116.13 105.687C118.713 105.687 120.806 103.588 120.806 100.999C120.806 98.4093 118.713 96.3103 116.13 96.3103C113.547 96.3103 111.453 98.4093 111.453 100.999Z" fill="#0081FF"/>
</g>
<g opacity="0.502715">
<path fill-rule="evenodd" clip-rule="evenodd" d="M26.8959 6.65109C26.8959 9.6867 24.4411 12.1473 21.4127 12.1473C18.3842 12.1473 15.9294 9.6867 15.9294 6.65109C15.9294 3.61549 18.3842 1.15488 21.4127 1.15488C24.4411 1.15488 26.8959 3.61549 26.8959 6.65109Z" fill="#0081FF"/>
<path fill-rule="evenodd" clip-rule="evenodd" d="M26.8959 22.3756C26.8959 25.4113 24.4411 27.8719 21.4127 27.8719C18.3842 27.8719 15.9294 25.4113 15.9294 22.3756C15.9294 19.34 18.3842 16.8794 21.4127 16.8794C24.4411 16.8794 26.8959 19.34 26.8959 22.3756Z" fill="#0081FF"/>
<path fill-rule="evenodd" clip-rule="evenodd" d="M43.4715 38.1002C43.4715 41.5057 40.717 44.266 37.3202 44.266C33.9228 44.266 31.1683 41.5057 31.1683 38.1002C31.1683 34.6947 33.9228 31.9344 37.3202 31.9344C40.717 31.9344 43.4715 34.6947 43.4715 38.1002Z" fill="#0081FF"/>
<path fill-rule="evenodd" clip-rule="evenodd" d="M43.4715 53.8248C43.4715 57.2303 40.717 59.9906 37.3202 59.9906C33.9228 59.9906 31.1683 57.2303 31.1683 53.8248C31.1683 50.4193 33.9228 47.6591 37.3202 47.6591C40.717 47.6591 43.4715 50.4193 43.4715 53.8248Z" fill="#0081FF"/>
<path fill-rule="evenodd" clip-rule="evenodd" d="M43.4715 69.5494C43.4715 72.9549 40.717 75.7152 37.3202 75.7152C33.9228 75.7152 31.1683 72.9549 31.1683 69.5494C31.1683 66.1439 33.9228 63.3837 37.3202 63.3837C40.717 63.3837 43.4715 66.1439 43.4715 69.5494Z" fill="#0081FF"/>
<path fill-rule="evenodd" clip-rule="evenodd" d="M26.8959 85.274C26.8959 88.3096 24.4411 90.7702 21.4127 90.7702C18.3842 90.7702 15.9294 88.3096 15.9294 85.274C15.9294 82.2384 18.3842 79.7778 21.4127 79.7778C24.4411 79.7778 26.8959 82.2384 26.8959 85.274Z" fill="#0081FF"/>
<path fill-rule="evenodd" clip-rule="evenodd" d="M26.8959 100.999C26.8959 104.034 24.4411 106.495 21.4127 106.495C18.3842 106.495 15.9294 104.034 15.9294 100.999C15.9294 97.963 18.3842 95.5023 21.4127 95.5023C24.4411 95.5023 26.8959 97.963 26.8959 100.999Z" fill="#0081FF"/>
<path fill-rule="evenodd" clip-rule="evenodd" d="M94.9105 6.65109C94.9105 9.6867 97.3653 12.1473 100.394 12.1473C103.422 12.1473 105.877 9.6867 105.877 6.65109C105.877 3.61549 103.422 1.15488 100.394 1.15488C97.3653 1.15488 94.9105 3.61549 94.9105 6.65109Z" fill="#0081FF"/>
<path fill-rule="evenodd" clip-rule="evenodd" d="M94.9105 22.3756C94.9105 25.4113 97.3653 27.8719 100.394 27.8719C103.422 27.8719 105.877 25.4113 105.877 22.3756C105.877 19.34 103.422 16.8794 100.394 16.8794C97.3653 16.8794 94.9105 19.34 94.9105 22.3756Z" fill="#0081FF"/>
<path fill-rule="evenodd" clip-rule="evenodd" d="M78.335 38.1002C78.335 41.5057 81.0894 44.266 84.4862 44.266C87.8836 44.266 90.6381 41.5057 90.6381 38.1002C90.6381 34.6947 87.8836 31.9344 84.4862 31.9344C81.0894 31.9344 78.335 34.6947 78.335 38.1002Z" fill="#0081FF"/>
<path fill-rule="evenodd" clip-rule="evenodd" d="M78.335 53.8248C78.335 57.2303 81.0894 59.9906 84.4862 59.9906C87.8836 59.9906 90.6381 57.2303 90.6381 53.8248C90.6381 50.4193 87.8836 47.6591 84.4862 47.6591C81.0894 47.6591 78.335 50.4193 78.335 53.8248Z" fill="#0081FF"/>
<path fill-rule="evenodd" clip-rule="evenodd" d="M78.335 69.5494C78.335 72.9549 81.0894 75.7152 84.4862 75.7152C87.8836 75.7152 90.6381 72.9549 90.6381 69.5494C90.6381 66.1439 87.8836 63.3837 84.4862 63.3837C81.0894 63.3837 78.335 66.1439 78.335 69.5494Z" fill="#0081FF"/>
<path fill-rule="evenodd" clip-rule="evenodd" d="M94.9105 85.274C94.9105 88.3096 97.3653 90.7702 100.394 90.7702C103.422 90.7702 105.877 88.3096 105.877 85.274C105.877 82.2384 103.422 79.7778 100.394 79.7778C97.3653 79.7778 94.9105 82.2384 94.9105 85.274Z" fill="#0081FF"/>
<path fill-rule="evenodd" clip-rule="evenodd" d="M94.9105 100.999C94.9105 104.034 97.3653 106.495 100.394 106.495C103.422 106.495 105.877 104.034 105.877 100.999C105.877 97.963 103.422 95.5023 100.394 95.5023C97.3653 95.5023 94.9105 97.963 94.9105 100.999Z" fill="#0081FF"/>
</g>
<path fill-rule="evenodd" clip-rule="evenodd" d="M43.4715 6.6511C43.4715 10.0566 40.717 12.8169 37.3202 12.8169C33.9228 12.8169 31.1683 10.0566 31.1683 6.6511C31.1683 3.2456 33.9228 0.485321 37.3202 0.485321C40.717 0.485321 43.4715 3.2456 43.4715 6.6511Z" fill="#0081FF"/>
<path fill-rule="evenodd" clip-rule="evenodd" d="M43.4715 22.3756C43.4715 25.7811 40.717 28.5414 37.3202 28.5414C33.9228 28.5414 31.1683 25.7811 31.1683 22.3756C31.1683 18.9701 33.9228 16.2098 37.3202 16.2098C40.717 16.2098 43.4715 18.9701 43.4715 22.3756Z" fill="#0081FF"/>
<path fill-rule="evenodd" clip-rule="evenodd" d="M43.4715 85.274C43.4715 88.6795 40.717 91.4397 37.3202 91.4397C33.9228 91.4397 31.1683 88.6795 31.1683 85.274C31.1683 81.8685 33.9228 79.1082 37.3202 79.1082C40.717 79.1082 43.4715 81.8685 43.4715 85.274Z" fill="#0081FF"/>
<path fill-rule="evenodd" clip-rule="evenodd" d="M43.4715 100.999C43.4715 104.404 40.717 107.164 37.3202 107.164C33.9228 107.164 31.1683 104.404 31.1683 100.999C31.1683 97.5931 33.9228 94.8328 37.3202 94.8328C40.717 94.8328 43.4715 97.5931 43.4715 100.999Z" fill="#0081FF"/>
<path fill-rule="evenodd" clip-rule="evenodd" d="M78.335 6.6511C78.335 10.0566 81.0894 12.8169 84.4862 12.8169C87.8836 12.8169 90.6381 10.0566 90.6381 6.6511C90.6381 3.2456 87.8836 0.485321 84.4862 0.485321C81.0894 0.485321 78.335 3.2456 78.335 6.6511Z" fill="#0081FF"/>
<path fill-rule="evenodd" clip-rule="evenodd" d="M78.335 22.3756C78.335 25.7811 81.0894 28.5414 84.4862 28.5414C87.8836 28.5414 90.6381 25.7811 90.6381 22.3756C90.6381 18.9701 87.8836 16.2098 84.4862 16.2098C81.0894 16.2098 78.335 18.9701 78.335 22.3756Z" fill="#0081FF"/>
<path fill-rule="evenodd" clip-rule="evenodd" d="M78.335 85.274C78.335 88.6795 81.0894 91.4397 84.4862 91.4397C87.8836 91.4397 90.6381 88.6795 90.6381 85.274C90.6381 81.8685 87.8836 79.1082 84.4862 79.1082C81.0894 79.1082 78.335 81.8685 78.335 85.274Z" fill="#0081FF"/>
<path fill-rule="evenodd" clip-rule="evenodd" d="M78.335 100.999C78.335 104.404 81.0894 107.164 84.4862 107.164C87.8836 107.164 90.6381 104.404 90.6381 100.999C90.6381 97.5931 87.8836 94.8328 84.4862 94.8328C81.0894 94.8328 78.335 97.5931 78.335 100.999Z" fill="#0081FF"/>
<path fill-rule="evenodd" clip-rule="evenodd" d="M59.7269 6.65108C59.7269 10.3243 56.7561 13.3022 53.0916 13.3022C49.427 13.3022 46.4562 10.3243 46.4562 6.65108C46.4562 2.9779 49.427 0 53.0916 0C56.7561 0 59.7269 2.9779 59.7269 6.65108Z" fill="#0081FF"/>
<path fill-rule="evenodd" clip-rule="evenodd" d="M59.7269 22.3756C59.7269 26.0488 56.7561 29.0267 53.0916 29.0267C49.427 29.0267 46.4562 26.0488 46.4562 22.3756C46.4562 18.7024 49.427 15.7245 53.0916 15.7245C56.7561 15.7245 59.7269 18.7024 59.7269 22.3756Z" fill="#0081FF"/>
<path fill-rule="evenodd" clip-rule="evenodd" d="M59.7269 38.1002C59.7269 41.7734 56.7561 44.7513 53.0916 44.7513C49.427 44.7513 46.4562 41.7734 46.4562 38.1002C46.4562 34.427 49.427 31.4491 53.0916 31.4491C56.7561 31.4491 59.7269 34.427 59.7269 38.1002Z" fill="#0081FF"/>
<path fill-rule="evenodd" clip-rule="evenodd" d="M59.7269 53.8248C59.7269 57.498 56.7561 60.4759 53.0916 60.4759C49.427 60.4759 46.4562 57.498 46.4562 53.8248C46.4562 50.1516 49.427 47.1737 53.0916 47.1737C56.7561 47.1737 59.7269 50.1516 59.7269 53.8248Z" fill="#0081FF"/>
<path fill-rule="evenodd" clip-rule="evenodd" d="M59.7269 69.5494C59.7269 73.2226 56.7561 76.2005 53.0916 76.2005C49.427 76.2005 46.4562 73.2226 46.4562 69.5494C46.4562 65.8762 49.427 62.8983 53.0916 62.8983C56.7561 62.8983 59.7269 65.8762 59.7269 69.5494Z" fill="#0081FF"/>
<path fill-rule="evenodd" clip-rule="evenodd" d="M59.7269 85.2739C59.7269 88.9471 56.7561 91.925 53.0916 91.925C49.427 91.925 46.4562 88.9471 46.4562 85.2739C46.4562 81.6008 49.427 78.6229 53.0916 78.6229C56.7561 78.6229 59.7269 81.6008 59.7269 85.2739Z" fill="#0081FF"/>
<path fill-rule="evenodd" clip-rule="evenodd" d="M59.7269 100.999C59.7269 104.672 56.7561 107.65 53.0916 107.65C49.427 107.65 46.4562 104.672 46.4562 100.999C46.4562 97.3254 49.427 94.3475 53.0916 94.3475C56.7561 94.3475 59.7269 97.3254 59.7269 100.999Z" fill="#0081FF"/>
<path fill-rule="evenodd" clip-rule="evenodd" d="M62.0795 6.65108C62.0795 10.3243 65.0504 13.3022 68.7149 13.3022C72.3794 13.3022 75.3503 10.3243 75.3503 6.65108C75.3503 2.9779 72.3794 0 68.7149 0C65.0504 0 62.0795 2.9779 62.0795 6.65108Z" fill="#0081FF"/>
<path fill-rule="evenodd" clip-rule="evenodd" d="M62.0795 22.3756C62.0795 26.0488 65.0504 29.0267 68.7149 29.0267C72.3794 29.0267 75.3503 26.0488 75.3503 22.3756C75.3503 18.7024 72.3794 15.7245 68.7149 15.7245C65.0504 15.7245 62.0795 18.7024 62.0795 22.3756Z" fill="#0081FF"/>
<path fill-rule="evenodd" clip-rule="evenodd" d="M62.0795 38.1002C62.0795 41.7734 65.0504 44.7513 68.7149 44.7513C72.3794 44.7513 75.3503 41.7734 75.3503 38.1002C75.3503 34.427 72.3794 31.4491 68.7149 31.4491C65.0504 31.4491 62.0795 34.427 62.0795 38.1002Z" fill="#0081FF"/>
<path fill-rule="evenodd" clip-rule="evenodd" d="M62.0795 53.8248C62.0795 57.498 65.0504 60.4759 68.7149 60.4759C72.3794 60.4759 75.3503 57.498 75.3503 53.8248C75.3503 50.1516 72.3794 47.1737 68.7149 47.1737C65.0504 47.1737 62.0795 50.1516 62.0795 53.8248Z" fill="#0081FF"/>
<path fill-rule="evenodd" clip-rule="evenodd" d="M62.0795 69.5494C62.0795 73.2226 65.0504 76.2005 68.7149 76.2005C72.3794 76.2005 75.3503 73.2226 75.3503 69.5494C75.3503 65.8762 72.3794 62.8983 68.7149 62.8983C65.0504 62.8983 62.0795 65.8762 62.0795 69.5494Z" fill="#0081FF"/>
<path fill-rule="evenodd" clip-rule="evenodd" d="M62.0795 85.2739C62.0795 88.9471 65.0504 91.925 68.7149 91.925C72.3794 91.925 75.3503 88.9471 75.3503 85.2739C75.3503 81.6008 72.3794 78.6229 68.7149 78.6229C65.0504 78.6229 62.0795 81.6008 62.0795 85.2739Z" fill="#0081FF"/>
<path fill-rule="evenodd" clip-rule="evenodd" d="M62.0795 100.999C62.0795 104.672 65.0504 107.65 68.7149 107.65C72.3794 107.65 75.3503 104.672 75.3503 100.999C75.3503 97.3254 72.3794 94.3475 68.7149 94.3475C65.0504 94.3475 62.0795 97.3254 62.0795 100.999Z" fill="#0081FF"/>
<path d="M3.83883 118.857H2.982C1.99407 118.857 1.19043 119.668 1.19043 120.667V133.759C1.19043 134.231 1.5723 134.616 2.04157 134.616H2.8984C3.88633 134.616 4.68997 133.805 4.68997 132.806V119.714C4.68997 119.242 4.3081 118.857 3.83883 118.857Z" fill="#0081FF" stroke="#0081FF" stroke-width="2" stroke-miterlimit="10"/>
<path d="M34.191 120.129C33.6457 119.38 32.5267 118.859 31.4685 118.859C30.604 118.859 29.3824 119.257 28.746 120.129L19.0225 133.443C18.8572 133.67 18.8344 133.966 18.9617 134.216C19.0871 134.462 19.3379 134.616 19.6133 134.616H21.4182C22.1325 134.616 22.8108 134.269 23.2364 133.687L31.4704 122.416L39.7025 133.687C40.128 134.269 40.8082 134.616 41.5206 134.616H43.3255C43.601 134.616 43.8518 134.462 43.9771 134.216C44.1044 133.966 44.0816 133.67 43.9163 133.443L34.191 120.129Z" fill="#0081FF" stroke="#0081FF" stroke-width="2" stroke-miterlimit="10"/>
<path d="M81.1081 118.863H80.4337C80.0157 118.861 79.5465 118.859 79.2387 118.857C78.7371 118.857 78.2489 119.024 77.8537 119.333L69.6577 125.772C69.2834 126.066 68.9908 126.066 68.6166 125.772C65.2519 123.128 63.0424 121.485 61.7239 120.504C61.1463 120.074 60.7302 119.765 60.4415 119.539C59.8829 119.103 59.1895 118.863 58.4846 118.863H56.9343C56.4651 118.863 56.0832 119.247 56.0832 119.719V133.765C56.0832 134.237 56.4651 134.621 56.9343 134.621H57.7912C58.7791 134.621 59.5808 133.81 59.5808 132.812V123.327L66.0917 128.442C66.8136 129.008 67.9611 129.374 69.0174 129.374C70.0738 129.374 71.2213 129.008 71.9432 128.442L78.4559 123.327V132.812C78.4559 133.808 79.2596 134.621 80.2456 134.621H81.1024C81.5698 134.621 81.9517 134.237 81.9517 133.765V119.719C81.9517 119.249 81.5717 118.865 81.1062 118.863H81.1081Z" fill="#0081FF" stroke="#0081FF" stroke-width="2" stroke-miterlimit="10"/>
<path d="M120.291 132.541L112.874 126.744L120.293 120.917C120.568 120.701 120.732 120.362 120.732 120.011C120.732 119.702 120.612 119.412 120.395 119.194C120.179 118.978 119.894 118.859 119.588 118.859H118.551C117.846 118.861 117.152 119.102 116.598 119.539L110.484 124.341C110.058 124.675 109.528 124.858 108.992 124.858H107.07C106.534 124.858 106.004 124.675 105.578 124.341L99.4646 119.539C98.9099 119.102 98.2164 118.861 97.5116 118.861H96.4723C95.8435 118.861 95.3305 119.376 95.3305 120.011C95.3305 120.362 95.4939 120.701 95.7694 120.919L103.186 126.744L95.7694 132.543C95.4901 132.762 95.3286 133.094 95.3286 133.465C95.3286 134.1 95.8416 134.617 96.4704 134.617H97.4907C98.1936 134.617 98.889 134.377 99.4475 133.941L105.597 129.132C106.023 128.8 106.551 128.616 107.085 128.616H108.97C109.505 128.616 110.032 128.798 110.457 129.132L116.609 133.941C117.166 134.377 117.861 134.617 118.566 134.617H119.588C120.217 134.617 120.73 134.1 120.73 133.452C120.73 133.094 120.57 132.762 120.289 132.543L120.291 132.541Z" fill="#0081FF" stroke="#0081FF" stroke-width="2" stroke-miterlimit="10"/>
</svg>
