<svg width="140" height="115" viewBox="0 0 140 115" fill="none" xmlns="http://www.w3.org/2000/svg">
<circle cx="82.5" cy="57.5" r="57.5" fill="#0081FF"/>
<rect x="0.5" y="11.5" width="73" height="94" rx="3.5" fill="white" stroke="black"/>
<line x1="5.5" y1="15" x2="5.5" y2="100" stroke="black"/>
<g clip-path="url(#clip0_0_1)">
<path d="M36.5 93.33C34.8811 93.33 33.5403 92.103 33.3051 90.5019H28V95H45V90.5019H39.6949C39.4597 92.1029 38.1189 93.33 36.5 93.33Z" fill="black"/>
<path d="M28 85V89.4974H33.3051C33.54 87.896 34.8809 86.6687 36.5 86.6687C38.1191 86.6687 39.46 87.8962 39.6949 89.4974H45V85H28Z" fill="black"/>
<path d="M36.4998 92.3348C37.7506 92.3348 38.7647 91.2896 38.7647 90.0003C38.7647 88.711 37.7506 87.6658 36.4998 87.6658C35.2489 87.6658 34.2349 88.711 34.2349 90.0003C34.2349 91.2896 35.2489 92.3348 36.4998 92.3348Z" fill="black"/>
</g>
<g clip-path="url(#clip1_0_1)">
<path d="M36.7625 27.6622C46.9178 27.6622 55.1765 35.9209 55.1765 46.0762C55.1765 56.2316 46.9178 64.4903 36.7625 64.4903C26.6071 64.4903 18.3484 56.2316 18.3484 46.0762C18.3484 35.9209 26.6071 27.6622 36.7625 27.6622ZM36.7625 26.7415C26.0823 26.7415 17.4277 35.3961 17.4277 46.0762C17.4277 56.7564 26.0823 65.411 36.7625 65.411C47.4426 65.411 56.0972 56.7564 56.0972 46.0762C56.0972 35.3961 47.4426 26.7415 36.7625 26.7415Z" fill="black"/>
<path d="M36.2908 27.6617C41.6076 27.6617 46.0976 36.0905 46.0976 46.0653C46.0976 56.04 41.6076 64.4689 36.2908 64.4689C30.9741 64.4689 26.4841 56.04 26.4841 46.0653C26.4841 36.0905 30.9741 27.6617 36.2908 27.6617ZM36.2908 26.7415C30.3024 26.7415 25.4507 35.3912 25.4507 46.0653C25.4507 56.7394 30.3024 65.3891 36.2908 65.3891C42.2793 65.3891 47.131 56.7394 47.131 46.0653C47.131 35.3912 42.2793 26.7415 36.2908 26.7415Z" fill="black"/>
<path d="M20.7378 36.1677H52.787" stroke="black" stroke-miterlimit="10"/>
<path d="M20.7378 55.9628H52.787" stroke="black" stroke-miterlimit="10"/>
<path d="M17.9097 45.594L55.6146 45.594" stroke="black" stroke-miterlimit="10"/>
<line x1="36.3198" y1="26.7415" x2="36.3198" y2="65.3891" stroke="black"/>
</g>
<rect x="50.8945" y="34.7825" width="72.0895" height="46.965" rx="3.5" fill="white" stroke="black"/>
<line x1="91.5073" y1="49.7708" x2="118.916" y2="49.7708" stroke="black"/>
<line x1="98.3599" y1="39.4926" x2="118.916" y2="39.4926" stroke="black"/>
<line x1="54.9629" y1="39.4926" x2="88.0816" y2="39.4926" stroke="black"/>
<line x1="91.5073" y1="55.481" x2="118.916" y2="55.481" stroke="black"/>
<line x1="91.5073" y1="61.1911" x2="118.916" y2="61.1911" stroke="black"/>
<line x1="91.5073" y1="66.9012" x2="118.916" y2="66.9012" stroke="black"/>
<line x1="54.9629" y1="77.1794" x2="118.916" y2="77.1794" stroke="black"/>
<path d="M83.7597 70.9018C83.1782 69.6596 82.5731 68.427 81.9127 67.223C80.8857 65.3464 79.7444 63.5251 78.7686 61.6256C77.9565 60.0432 77.7712 58.3519 78.1122 56.5728C78.6385 53.8304 78.1063 51.2562 76.3401 49.0088C74.1757 46.2531 71.2858 44.8676 67.714 45.3358C62.3326 46.0391 58.605 50.9428 59.5255 56.139C59.9257 58.3921 60.7181 60.5821 61.3706 62.7913C62.1788 65.5241 62.8352 68.2588 61.9994 71.1043C61.8871 71.4904 62.0743 71.6624 62.4745 71.6318C63.1467 71.5802 63.6986 71.2783 64.1756 70.8368C65.1632 69.9233 65.5989 68.7442 65.8571 67.4886C65.9458 67.0548 65.9931 66.6134 66.066 66.128C67.9821 66.944 69.8528 66.923 71.7037 66.1356C71.8693 66.9153 71.9639 67.6759 72.1965 68.3964C72.6085 69.673 73.2176 70.8444 74.5778 71.4388C75.4491 71.8191 75.6974 71.649 75.5772 70.7489C75.4924 70.1087 75.4077 68.9831 75.3663 68.4002C75.3604 68.3238 75.4688 68.297 75.5023 68.3677C75.7999 68.9965 76.4347 70.3476 76.7678 71.133C76.9196 71.4923 77.0871 71.6471 77.4991 71.6433C79.4092 71.628 81.3194 71.6413 83.2275 71.6394C83.8997 71.6394 84.0377 71.4942 83.7617 70.9037L83.7597 70.9018ZM74.7296 61.4192C74.3235 64.1539 71.7254 66.0879 68.8731 66.0821C66.0089 66.0764 63.4463 64.0889 63.0028 61.3504C62.7938 60.0642 62.847 58.738 62.8096 57.4022C62.8037 57.2206 62.9279 57.0601 63.1112 57.0199C63.8129 56.8632 64.6054 56.6454 65.3722 56.3549H67.1266C67.3 56.3549 67.4636 56.4218 67.5839 56.5441C67.7041 56.6664 67.7672 56.825 67.7593 56.9951L67.6056 60.586C67.6016 60.6796 67.6371 60.7694 67.7041 60.8363C67.7712 60.9032 67.8618 60.9414 67.9584 60.9414H69.5354C69.7305 60.9414 69.8882 60.7885 69.8882 60.5993C69.8882 60.4101 69.7305 60.2573 69.5354 60.2573H68.3251L68.465 57.0219C68.4808 56.6645 68.3487 56.3281 68.0944 56.0702C67.8401 55.8122 67.4972 55.6707 67.1285 55.6707H66.8368C68.1989 54.7974 69.9178 52.6647 70.45 51.9805C70.5309 51.8754 70.6925 51.8792 70.7694 51.9882C71.138 52.5156 72.0921 53.8361 72.7702 54.4343C73.4798 55.0592 74.0515 55.3478 74.5186 55.6211C74.7493 55.7567 74.8892 55.9956 74.8951 56.2574C74.9168 57.2932 74.9484 59.9649 74.7315 61.4211L74.7296 61.4192ZM70.1051 62.5734C70.1051 62.5734 69.5906 62.8926 68.8435 62.8926C68.0964 62.8926 67.5878 62.5773 67.5839 62.5754C67.4025 62.4588 67.1581 62.5066 67.0379 62.6805C66.9176 62.8544 66.9669 63.0932 67.1463 63.2098C67.1739 63.2289 67.848 63.657 68.8435 63.657C69.839 63.657 70.5131 63.2289 70.5407 63.2098C70.7221 63.0932 70.7694 62.8582 70.6511 62.6824C70.5328 62.5066 70.2884 62.4588 70.1051 62.5734ZM65.1967 57.3907C64.3688 57.3907 63.811 57.8341 63.7873 57.8532C63.6375 57.9736 63.6178 58.1895 63.742 58.3347C63.8662 58.48 64.0889 58.4991 64.2387 58.3787C64.2427 58.3749 64.629 58.0768 65.1948 58.0768C65.7605 58.0768 66.1488 58.3787 66.1508 58.3787C66.2159 58.4322 66.2967 58.459 66.3755 58.459C66.4761 58.459 66.5766 58.4169 66.6476 58.3367C66.7717 58.1914 66.752 57.9755 66.6022 57.8551C66.5786 57.836 66.0207 57.3926 65.1928 57.3926L65.1967 57.3907ZM72.4903 57.3907C71.6623 57.3907 71.1045 57.8341 71.0808 57.8532C70.931 57.9736 70.9113 58.1895 71.0355 58.3347C71.1597 58.48 71.3824 58.4991 71.5322 58.3787C71.5362 58.3749 71.9225 58.0768 72.4883 58.0768C73.054 58.0768 73.4424 58.3787 73.4443 58.3787C73.5094 58.4322 73.5902 58.459 73.669 58.459C73.7696 58.459 73.8701 58.4169 73.9411 58.3367C74.0653 58.1914 74.0456 57.9755 73.8957 57.8551C73.8721 57.836 73.3142 57.3926 72.4863 57.3926L72.4903 57.3907ZM73.4345 56.0128C73.4345 55.8236 73.2768 55.6707 73.0816 55.6707H70.9133C70.176 55.6707 69.5748 56.2536 69.5748 56.9683V57.3506C69.5748 57.5397 69.7325 57.6926 69.9277 57.6926C70.1228 57.6926 70.2805 57.5397 70.2805 57.3506V56.9683C70.2805 56.6301 70.5644 56.3549 70.9133 56.3549H73.0816C73.2768 56.3549 73.4345 56.202 73.4345 56.0128Z" fill="black"/>
<defs>
<clipPath id="clip0_0_1">
<rect width="17" height="10" fill="white" transform="translate(28 85)"/>
</clipPath>
<clipPath id="clip1_0_1">
<rect width="39.5902" height="39.5902" fill="white" transform="translate(16.9673 25.7989)"/>
</clipPath>
</defs>
</svg>
