<svg width="25" height="28" viewBox="0 0 25 28" fill="none" xmlns="http://www.w3.org/2000/svg">
<g clip-path="url(#clip0_10_279)">
<path d="M20.4571 22.067C20.9219 22.067 21.3634 22.2529 21.6926 22.5891C22.0218 22.9253 22.2039 23.3722 22.2039 23.8469C22.2039 24.8278 21.4215 25.6268 20.4571 25.6268C19.4966 25.6268 18.7143 24.8278 18.7143 23.8469C18.7143 22.866 19.4966 22.067 20.461 22.067M20.461 19.6938C18.2147 19.6938 16.3944 21.5528 16.3905 23.8429C16.3905 26.137 18.2108 27.9961 20.4571 28C22.7035 28 24.5238 26.141 24.5277 23.8508C24.5277 21.5567 22.7074 19.6977 20.461 19.6938Z" fill="white"/>
<path d="M4.07052 12.2379C4.53528 12.2379 4.9768 12.4238 5.306 12.76C5.63521 13.0962 5.81724 13.5431 5.81724 14.0178C5.81724 14.9987 5.03489 15.7977 4.07052 15.7977C3.11002 15.7977 2.32767 14.9987 2.32767 14.0178C2.32767 13.0369 3.11002 12.2379 4.07439 12.2379M4.07439 9.86465C1.82418 9.86465 0 11.7237 0 14.0178C0 16.3119 1.82031 18.1709 4.06665 18.1749C6.31298 18.1749 8.13329 16.3158 8.13716 14.0257C8.13716 11.7316 6.31686 9.87257 4.07052 9.86861L4.07439 9.86465Z" fill="white"/>
<path d="M20.5733 2.37322C21.0381 2.37322 21.4796 2.55912 21.8088 2.89532C22.138 3.23153 22.32 3.67849 22.32 4.15313C22.32 5.13406 21.5377 5.93304 20.5733 5.93304C20.1086 5.93304 19.667 5.74714 19.3378 5.41093C19.0086 5.07473 18.8266 4.62777 18.8266 4.15313C18.8266 3.1722 19.6089 2.37322 20.5733 2.37322ZM20.5733 0C18.327 0 16.5067 1.85902 16.5028 4.14917C16.5028 6.44328 18.3231 8.3023 20.5695 8.30626C22.8158 8.30626 24.6361 6.44724 24.64 4.15708C24.64 1.86298 22.8197 0.00395536 20.5733 0Z" fill="white"/>
<path d="M17.0101 21.6754L7.61426 16.0588" stroke="white" stroke-width="2" stroke-miterlimit="10" stroke-linecap="round"/>
<path d="M17.049 6.23761L7.55237 11.8819" stroke="white" stroke-width="2" stroke-miterlimit="10" stroke-linecap="round"/>
</g>
<defs>
<clipPath id="clip0_10_279">
<rect width="24.64" height="28" fill="white"/>
</clipPath>
</defs>
</svg>
